<mxfile host="app.diagrams.net" modified="2023-03-27T00:22:50.329Z" agent="Mozilla/5.0 (X11; Linux x86_64) AppleWebKit/537.36 (KHTML, like Gecko) Chrome/111.0.0.0 Safari/537.36" etag="9XN116oFgJUf2Q-tunzv" version="21.1.1" type="github">
  <diagram name="ページ1" id="0P4fpCA2ElZijz7k6KJM">
    <mxGraphModel dx="1674" dy="775" grid="1" gridSize="10" guides="1" tooltips="1" connect="1" arrows="1" fold="1" page="1" pageScale="1" pageWidth="827" pageHeight="1169" math="0" shadow="0">
      <root>
        <mxCell id="0" />
        <mxCell id="1" parent="0" />
        <mxCell id="aOrG64JXtYgB1la9WTQS-2" value="" style="whiteSpace=wrap;html=1;aspect=fixed;" vertex="1" parent="1">
          <mxGeometry x="40" y="160" width="230" height="230" as="geometry" />
        </mxCell>
        <mxCell id="aOrG64JXtYgB1la9WTQS-1" value="" style="image;aspect=fixed;html=1;points=[];align=center;fontSize=12;image=img/lib/azure2/storage/Data_Lake_Storage_Gen1.svg;" vertex="1" parent="1">
          <mxGeometry x="115.77" y="300" width="49.23" height="40" as="geometry" />
        </mxCell>
        <mxCell id="aOrG64JXtYgB1la9WTQS-3" value="Data Source" style="text;html=1;strokeColor=none;fillColor=none;align=center;verticalAlign=middle;whiteSpace=wrap;rounded=0;" vertex="1" parent="1">
          <mxGeometry x="40" y="160" width="80" height="20" as="geometry" />
        </mxCell>
        <mxCell id="aOrG64JXtYgB1la9WTQS-4" value="Data Lake Storage Gen2" style="text;html=1;strokeColor=none;fillColor=none;align=center;verticalAlign=middle;whiteSpace=wrap;rounded=0;" vertex="1" parent="1">
          <mxGeometry x="104.62" y="350" width="80" height="30" as="geometry" />
        </mxCell>
        <mxCell id="aOrG64JXtYgB1la9WTQS-5" value="" style="image;aspect=fixed;html=1;points=[];align=center;fontSize=12;image=img/lib/azure2/databases/SQL_Database.svg;" vertex="1" parent="1">
          <mxGeometry x="120" y="200" width="45" height="60" as="geometry" />
        </mxCell>
        <mxCell id="aOrG64JXtYgB1la9WTQS-6" value="SQL Database" style="text;html=1;strokeColor=none;fillColor=none;align=center;verticalAlign=middle;whiteSpace=wrap;rounded=0;" vertex="1" parent="1">
          <mxGeometry x="102.5" y="260" width="80" height="30" as="geometry" />
        </mxCell>
        <mxCell id="aOrG64JXtYgB1la9WTQS-8" value="" style="whiteSpace=wrap;html=1;aspect=fixed;" vertex="1" parent="1">
          <mxGeometry x="480" y="160" width="230" height="230" as="geometry" />
        </mxCell>
        <mxCell id="aOrG64JXtYgB1la9WTQS-7" value="" style="shape=cylinder3;whiteSpace=wrap;html=1;boundedLbl=1;backgroundOutline=1;size=8.5;rotation=90;" vertex="1" parent="1">
          <mxGeometry x="348.75" y="146.25" width="40" height="257.5" as="geometry" />
        </mxCell>
        <mxCell id="aOrG64JXtYgB1la9WTQS-9" value="Synapse Analytics" style="text;html=1;strokeColor=none;fillColor=none;align=center;verticalAlign=middle;whiteSpace=wrap;rounded=0;" vertex="1" parent="1">
          <mxGeometry x="480" y="160" width="110" height="20" as="geometry" />
        </mxCell>
      </root>
    </mxGraphModel>
  </diagram>
</mxfile>
